<?xml version="1.0" encoding="UTF-8"?>
<!-- Made with RuneIcon - https://runeicon.com -->
<svg xmlns="http://www.w3.org/2000/svg" width="128" height="128" viewBox="0 0 24 24" preserveAspectRatio="xMidYMid meet" fill="none">
  <rect x="0" y="0" width="24" height="24" rx="2.250" ry="2.250" fill="transparent"/>
  <g transform="translate(0.75, 0.75) scale(0.9375)">
    <g transform="translate(12, 12) rotate(0) scale(1, 1) translate(-12, -12)" stroke-width="2" stroke-linecap="round" stroke-linejoin="round">
      <g class="icon-anim-container icon-anim-group">
        <mask id="mask0_85_1236" style="mask-type:alpha" maskUnits="userSpaceOnUse" x="2" y="2" width="20" height="20">
<path d="M21.25 12C21.25 17.1086 17.1086 21.25 12 21.25C6.89137 21.25 2.75 17.1086 2.75 12C2.75 6.89137 6.89137 2.75 12 2.75C17.1086 2.75 21.25 6.89137 21.25 12Z" fill="black"/>
</mask>
<g mask="url(#mask0_85_1236)">
<g filter="url(#filter0_f_85_1236)">
<ellipse cx="16.5659" cy="17.9215" rx="0.968208" ry="3.91671" transform="rotate(48.2247 16.5659 17.9215)" fill="url(#paint0_linear_85_1236)"/>
</g>
<g filter="url(#filter1_f_85_1236)">
<path d="M16 9L10 15M16 15L10 9" stroke="url(#paint1_linear_85_1236)" stroke-width="1.5" stroke-linecap="round"/>
</g>
</g>
<path d="M21.25 12C21.25 17.1086 17.1086 21.25 12 21.25C6.89137 21.25 2.75 17.1086 2.75 12C2.75 6.89137 6.89137 2.75 12 2.75C17.1086 2.75 21.25 6.89137 21.25 12Z" fill="url(#paint2_linear_85_1236)" stroke="url(#paint3_linear_85_1236)" stroke-width="1.5" stroke-linecap="round"/>
<path d="M15 9L9 15M15 15L9 9" stroke="url(#paint4_linear_85_1236)" stroke-width="1.5" stroke-linecap="round"/>
<defs>
<filter id="filter0_f_85_1236" x="7.57422" y="9.21344" width="17.9834" height="17.4162" filterUnits="userSpaceOnUse" color-interpolation-filters="sRGB">
<feFlood flood-opacity="0" result="BackgroundImageFix"/>
<feBlend mode="normal" in="SourceGraphic" in2="BackgroundImageFix" result="shape"/>
<feGaussianBlur stdDeviation="3" result="effect1_foregroundBlur_85_1236"/>
</filter>
<filter id="filter1_f_85_1236" x="8.25" y="7.25" width="9.5" height="9.5" filterUnits="userSpaceOnUse" color-interpolation-filters="sRGB">
<feFlood flood-opacity="0" result="BackgroundImageFix"/>
<feBlend mode="normal" in="SourceGraphic" in2="BackgroundImageFix" result="shape"/>
<feGaussianBlur stdDeviation="0.5" result="effect1_foregroundBlur_85_1236"/>
</filter>
<linearGradient id="paint0_linear_85_1236" x1="16.5659" y1="14.0048" x2="16.5659" y2="21.8382" gradientUnits="userSpaceOnUse">
<stop stop-color="#575757"/>
<stop offset="1" stop-color="#151515"/>
</linearGradient>
<linearGradient id="paint1_linear_85_1236" x1="13" y1="9" x2="13" y2="15" gradientUnits="userSpaceOnUse">
<stop stop-color="#575757"/>
<stop offset="1" stop-color="#151515"/>
</linearGradient>
<linearGradient id="paint2_linear_85_1236" x1="12" y1="2.75" x2="12" y2="21.25" gradientUnits="userSpaceOnUse">
<stop stop-color="#E3E3E3" stop-opacity="0.6"/>
<stop offset="1" stop-color="#BBBBC0" stop-opacity="0.6"/>
</linearGradient>
<linearGradient id="paint3_linear_85_1236" x1="12" y1="2.75" x2="12" y2="21.25" gradientUnits="userSpaceOnUse">
<stop stop-color="white"/>
<stop offset="1" stop-color="white" stop-opacity="0"/>
</linearGradient>
<linearGradient id="paint4_linear_85_1236" x1="12" y1="9" x2="12" y2="15" gradientUnits="userSpaceOnUse">
<stop stop-color="#575757"/>
<stop offset="1" stop-color="#151515"/>
</linearGradient>
</defs>
      </g>
    </g>
  </g>
</svg>
