<?xml version="1.0" encoding="UTF-8"?>
<!-- Made with RuneIcon - https://runeicon.com -->
<svg xmlns="http://www.w3.org/2000/svg" width="128" height="128" viewBox="0 0 24 24" preserveAspectRatio="xMidYMid meet" fill="none">
  <rect x="0" y="0" width="24" height="24" rx="2.250" ry="2.250" fill="transparent"/>
  <g transform="translate(0.75, 0.75) scale(0.9375)">
    <g transform="translate(12, 12) rotate(0) scale(-1, 1) translate(-12, -12)" stroke-width="2" stroke-linecap="round" stroke-linejoin="round">
      <g class="icon-anim-container icon-anim-group">
        <mask id="mask0_156_59" style="mask-type:alpha" maskUnits="userSpaceOnUse" x="5" y="3" width="15" height="19">
<path d="M12.1716 3H7C5.89543 3 5 3.89543 5 5V19.5C5 20.6046 5.89543 21.5 7 21.5H17.5C18.6046 21.5 19.5 20.6046 19.5 19.5V10.3284C19.5 9.79799 19.2893 9.28929 18.9142 8.91421L13.5858 3.58579C13.2107 3.21071 12.702 3 12.1716 3Z" fill="black"/>
</mask>
<g mask="url(#mask0_156_59)">
<g filter="url(#filter0_f_156_59)">
<path d="M3.2998 18.55C3.2998 20.3449 4.75487 21.8 6.5498 21.8C8.34473 21.8 9.7998 20.3449 9.7998 18.55M9.7998 15.55C9.7998 13.7551 8.34473 12.3 6.5498 12.3C4.75487 12.3 3.2998 13.7551 3.2998 15.55M6.5498 16.3V17.8" stroke="url(#paint0_linear_156_59)" stroke-width="1.5" stroke-linecap="round" stroke-linejoin="round"/>
</g>
<g filter="url(#filter1_f_156_59)">
<ellipse cx="18.3178" cy="19.2788" rx="0.812663" ry="5.31726" transform="rotate(25.6915 18.3178 19.2788)" fill="url(#paint1_linear_156_59)"/>
</g>
<g filter="url(#filter2_f_156_59)">
<path d="M13 4.5V8.5C13 9.60457 13.8954 10.5 15 10.5H19" fill="url(#paint2_linear_156_59)"/>
<path d="M13 4.5V8.5C13 9.60457 13.8954 10.5 15 10.5H19L13 4.5Z" stroke="url(#paint3_linear_156_59)" stroke-width="1.5" stroke-linejoin="round"/>
</g>
</g>
<path d="M12.1716 3H7C5.89543 3 5 3.89543 5 5V19.5C5 20.6046 5.89543 21.5 7 21.5H17.5C18.6046 21.5 19.5 20.6046 19.5 19.5V10.3284C19.5 9.79799 19.2893 9.28929 18.9142 8.91421L13.5858 3.58579C13.2107 3.21071 12.702 3 12.1716 3Z" fill="url(#paint4_linear_156_59)" stroke="url(#paint5_linear_156_59)" stroke-linecap="round" stroke-linejoin="round"/>
<path d="M13 3.5V7.5C13 8.60457 13.8954 9.5 15 9.5H19" fill="url(#paint6_linear_156_59)"/>
<path d="M13 3.5V7.5C13 8.60457 13.8954 9.5 15 9.5H19L13 3.5Z" stroke="url(#paint7_linear_156_59)" stroke-width="1.5" stroke-linejoin="round"/>
<path d="M2.75 18C2.75 19.7949 4.20507 21.25 6 21.25C7.79493 21.25 9.25 19.7949 9.25 18M9.25 15C9.25 13.2051 7.79493 11.75 6 11.75C4.20507 11.75 2.75 13.2051 2.75 15M6 15.75V17.25" stroke="url(#paint8_linear_156_59)" stroke-width="1.5" stroke-linecap="round" stroke-linejoin="round"/>
<defs>
<filter id="filter0_f_156_59" x="2.0498" y="11.05" width="9" height="12" filterUnits="userSpaceOnUse" color-interpolation-filters="sRGB">
<feFlood flood-opacity="0" result="BackgroundImageFix"/>
<feBlend mode="normal" in="SourceGraphic" in2="BackgroundImageFix" result="shape"/>
<feGaussianBlur stdDeviation="0.25" result="effect1_foregroundBlur_156_59"/>
</filter>
<filter id="filter1_f_156_59" x="8.89844" y="7.47403" width="18.8389" height="23.6095" filterUnits="userSpaceOnUse" color-interpolation-filters="sRGB">
<feFlood flood-opacity="0" result="BackgroundImageFix"/>
<feBlend mode="normal" in="SourceGraphic" in2="BackgroundImageFix" result="shape"/>
<feGaussianBlur stdDeviation="3.5" result="effect1_foregroundBlur_156_59"/>
</filter>
<filter id="filter2_f_156_59" x="11.75" y="3.24997" width="8.5" height="8.50003" filterUnits="userSpaceOnUse" color-interpolation-filters="sRGB">
<feFlood flood-opacity="0" result="BackgroundImageFix"/>
<feBlend mode="normal" in="SourceGraphic" in2="BackgroundImageFix" result="shape"/>
<feGaussianBlur stdDeviation="0.25" result="effect1_foregroundBlur_156_59"/>
</filter>
<linearGradient id="paint0_linear_156_59" x1="6.5498" y1="12.3" x2="6.5498" y2="21.8" gradientUnits="userSpaceOnUse">
<stop stop-color="#575757"/>
<stop offset="1" stop-color="#151515"/>
</linearGradient>
<linearGradient id="paint1_linear_156_59" x1="18.3178" y1="13.9615" x2="18.3178" y2="24.596" gradientUnits="userSpaceOnUse">
<stop stop-color="#575757"/>
<stop offset="1" stop-color="#151515"/>
</linearGradient>
<linearGradient id="paint2_linear_156_59" x1="16" y1="4.5" x2="16" y2="10.5" gradientUnits="userSpaceOnUse">
<stop stop-color="#575757"/>
<stop offset="1" stop-color="#151515"/>
</linearGradient>
<linearGradient id="paint3_linear_156_59" x1="16" y1="4.5" x2="16" y2="10.5" gradientUnits="userSpaceOnUse">
<stop stop-color="#575757"/>
<stop offset="1" stop-color="#151515"/>
</linearGradient>
<linearGradient id="paint4_linear_156_59" x1="12.25" y1="3" x2="12.25" y2="21.5" gradientUnits="userSpaceOnUse">
<stop stop-color="#E3E3E3" stop-opacity="0.6"/>
<stop offset="1" stop-color="#BBBBC0" stop-opacity="0.6"/>
</linearGradient>
<linearGradient id="paint5_linear_156_59" x1="12.25" y1="3" x2="12.25" y2="21.5" gradientUnits="userSpaceOnUse">
<stop stop-color="white"/>
<stop offset="1" stop-color="white" stop-opacity="0"/>
</linearGradient>
<linearGradient id="paint6_linear_156_59" x1="16" y1="3.5" x2="16" y2="9.5" gradientUnits="userSpaceOnUse">
<stop stop-color="#575757"/>
<stop offset="1" stop-color="#151515"/>
</linearGradient>
<linearGradient id="paint7_linear_156_59" x1="16" y1="3.5" x2="16" y2="9.5" gradientUnits="userSpaceOnUse">
<stop stop-color="#575757"/>
<stop offset="1" stop-color="#151515"/>
</linearGradient>
<linearGradient id="paint8_linear_156_59" x1="6" y1="11.75" x2="6" y2="21.25" gradientUnits="userSpaceOnUse">
<stop stop-color="#575757"/>
<stop offset="1" stop-color="#151515"/>
</linearGradient>
</defs>
      </g>
    </g>
  </g>
</svg>