<?xml version="1.0" encoding="UTF-8"?>
<!-- Made with RuneIcon - https://runeicon.com -->
<svg xmlns="http://www.w3.org/2000/svg" width="128" height="128" viewBox="0 0 24 24" preserveAspectRatio="xMidYMid meet" fill="none">
  <rect x="0" y="0" width="24" height="24" rx="2.250" ry="2.250" fill="transparent"/>
  <g transform="translate(0.75, 0.75) scale(0.9375)">
    <g transform="translate(12, 12) rotate(0) scale(1, 1) translate(-12, -12)" stroke-width="2" stroke-linecap="round" stroke-linejoin="round">
      <g class="icon-anim-container icon-anim-group">
        <mask id="mask0_85_1091" style="mask-type:alpha" maskUnits="userSpaceOnUse" x="3" y="1" width="18" height="22">
<path d="M19.7976 8.74999H13.7498C13.4737 8.74999 13.2498 8.52613 13.2498 8.24999V2.35569C13.2498 1.86504 12.6167 1.66791 12.3382 2.07182L3.79043 14.4661C3.56168 14.7978 3.79911 15.25 4.20203 15.25H10.2498C10.5259 15.25 10.7498 15.4739 10.7498 15.75V21.6443C10.7498 22.135 11.3828 22.3321 11.6614 21.9282L20.2092 9.53386C20.438 9.20217 20.2005 8.74999 19.7976 8.74999Z" fill="black"/>
</mask>
<g mask="url(#mask0_85_1091)">
<g filter="url(#filter0_f_85_1091)">
<ellipse cx="15.6123" cy="15.1912" rx="0.968208" ry="3.20593" transform="rotate(34.4593 15.6123 15.1912)" fill="url(#paint0_linear_85_1091)"/>
</g>
</g>
<path d="M19.7976 8.74999H13.7498C13.4737 8.74999 13.2498 8.52613 13.2498 8.24999V2.35569C13.2498 1.86504 12.6167 1.66791 12.3382 2.07182L3.79043 14.4661C3.56168 14.7978 3.79911 15.25 4.20203 15.25H10.2498C10.5259 15.25 10.7498 15.4739 10.7498 15.75V21.6443C10.7498 22.135 11.3828 22.3321 11.6614 21.9282L20.2092 9.53386C20.438 9.20217 20.2005 8.74999 19.7976 8.74999Z" fill="url(#paint1_linear_85_1091)" stroke="url(#paint2_linear_85_1091)" stroke-linejoin="round"/>
<defs>
<filter id="filter0_f_85_1091" x="7.62988" y="6.49112" width="15.9648" height="17.4002" filterUnits="userSpaceOnUse" color-interpolation-filters="sRGB">
<feFlood flood-opacity="0" result="BackgroundImageFix"/>
<feBlend mode="normal" in="SourceGraphic" in2="BackgroundImageFix" result="shape"/>
<feGaussianBlur stdDeviation="3" result="effect1_foregroundBlur_85_1091"/>
</filter>
<linearGradient id="paint0_linear_85_1091" x1="15.6123" y1="11.9853" x2="15.6123" y2="18.3972" gradientUnits="userSpaceOnUse">
<stop stop-color="#575757"/>
<stop offset="1" stop-color="#151515"/>
</linearGradient>
<linearGradient id="paint1_linear_85_1091" x1="11.9998" y1="1.85475" x2="11.9998" y2="22.1453" gradientUnits="userSpaceOnUse">
<stop stop-color="#E3E3E3" stop-opacity="0.6"/>
<stop offset="1" stop-color="#BBBBC0" stop-opacity="0.6"/>
</linearGradient>
<linearGradient id="paint2_linear_85_1091" x1="11.9998" y1="1.85475" x2="11.9998" y2="22.1453" gradientUnits="userSpaceOnUse">
<stop stop-color="white"/>
<stop offset="1" stop-color="white" stop-opacity="0"/>
</linearGradient>
</defs>
      </g>
    </g>
  </g>
</svg>