<?xml version="1.0" encoding="UTF-8"?>
<!-- Made with RuneIcon - https://runeicon.com -->
<svg xmlns="http://www.w3.org/2000/svg" width="128" height="128" viewBox="0 0 24 24" preserveAspectRatio="xMidYMid meet" fill="none">
  <rect x="0" y="0" width="24" height="24" rx="2.250" ry="2.250" fill="transparent"/>
  <g transform="translate(0.75, 0.75) scale(0.9375)">
    <g transform="translate(12, 12) rotate(0) scale(1, 1) translate(-12, -12)" stroke-width="2" stroke-linecap="round" stroke-linejoin="round">
      <g class="icon-anim-container icon-anim-group">
        <mask id="mask0_158_117" style="mask-type:alpha" maskUnits="userSpaceOnUse" x="2" y="2" width="20" height="20">
<path d="M21.2481 11.8112C20.1889 12.56 18.8958 13 17.5 13C13.9101 13 11 10.0899 11 6.5C11 5.10416 11.44 3.81108 12.1888 2.75189C12.126 2.75063 12.0631 2.75 12 2.75C6.89137 2.75 2.75 6.89137 2.75 12C2.75 17.1086 6.89137 21.25 12 21.25C17.1086 21.25 21.25 17.1086 21.25 12C21.25 11.9369 21.2494 11.874 21.2481 11.8112Z" fill="black"/>
</mask>
<g mask="url(#mask0_158_117)">
<g filter="url(#filter0_f_158_117)">
<ellipse cx="17.1777" cy="16.2113" rx="0.968208" ry="5.31726" transform="rotate(25.6915 17.1777 16.2113)" fill="url(#paint0_linear_158_117)"/>
</g>
</g>
<path d="M21.2481 11.8112C20.1889 12.56 18.8958 13 17.5 13C13.9101 13 11 10.0899 11 6.5C11 5.10416 11.44 3.81108 12.1888 2.75189C12.126 2.75063 12.0631 2.75 12 2.75C6.89137 2.75 2.75 6.89137 2.75 12C2.75 17.1086 6.89137 21.25 12 21.25C17.1086 21.25 21.25 17.1086 21.25 12C21.25 11.9369 21.2494 11.874 21.2481 11.8112Z" fill="url(#paint1_linear_158_117)" stroke="url(#paint2_linear_158_117)" stroke-width="1.5" stroke-linecap="round" stroke-linejoin="round"/>
<defs>
<filter id="filter0_f_158_117" x="7.71191" y="4.40109" width="18.9316" height="23.6205" filterUnits="userSpaceOnUse" color-interpolation-filters="sRGB">
<feFlood flood-opacity="0" result="BackgroundImageFix"/>
<feBlend mode="normal" in="SourceGraphic" in2="BackgroundImageFix" result="shape"/>
<feGaussianBlur stdDeviation="3.5" result="effect1_foregroundBlur_158_117"/>
</filter>
<linearGradient id="paint0_linear_158_117" x1="17.1777" y1="10.8941" x2="17.1777" y2="21.5286" gradientUnits="userSpaceOnUse">
<stop stop-color="#575757"/>
<stop offset="1" stop-color="#151515"/>
</linearGradient>
<linearGradient id="paint1_linear_158_117" x1="12" y1="2.75" x2="12" y2="21.25" gradientUnits="userSpaceOnUse">
<stop stop-color="#E3E3E3" stop-opacity="0.6"/>
<stop offset="1" stop-color="#BBBBC0" stop-opacity="0.6"/>
</linearGradient>
<linearGradient id="paint2_linear_158_117" x1="12" y1="2.75" x2="12" y2="21.25" gradientUnits="userSpaceOnUse">
<stop stop-color="white"/>
<stop offset="1" stop-color="white" stop-opacity="0"/>
</linearGradient>
</defs>
      </g>
    </g>
  </g>
</svg>